<?xml version="1.0" encoding="UTF-8" standalone="no"?>
<!DOCTYPE svg PUBLIC "-//W3C//DTD SVG 1.1//EN" "http://www.w3.org/Graphics/SVG/1.1/DTD/svg11.dtd">
<svg width="100%" height="100%" viewBox="0 0 1731 271" version="1.1" xmlns="http://www.w3.org/2000/svg" xmlns:xlink="http://www.w3.org/1999/xlink" xml:space="preserve" xmlns:serif="http://www.serif.com/" style="fill-rule:evenodd;clip-rule:evenodd;stroke-linejoin:round;stroke-miterlimit:2;">
    <g transform="matrix(1,0,0,1,-94.6694,-404.64)">
        <g transform="matrix(1.93081,0,0,0.635801,-318.802,199.622)">
            <path d="M263.157,654.032C253.375,654.032 244.8,647.203 237.433,633.545C230.066,619.888 224.343,600.857 220.263,576.453C216.184,552.049 214.144,523.569 214.144,491.012C214.144,458.643 216.22,430.049 220.373,405.23C224.525,380.411 230.445,361.015 238.132,347.041C245.819,333.067 254.915,326.08 265.418,326.08C277.332,326.08 287.257,334.736 295.192,352.048C303.127,369.36 308.216,393.46 310.46,424.347L293.479,424.347C292.048,406.879 288.925,393.072 284.111,382.925C279.296,372.778 273.055,367.704 265.385,367.704C258.003,367.704 251.602,372.677 246.181,382.624C240.76,392.57 236.605,406.749 233.717,425.161C230.828,443.572 229.384,465.548 229.384,491.089C229.384,516.692 230.831,538.704 233.724,557.128C236.617,575.551 240.681,589.591 245.916,599.247C251.152,608.903 257.213,613.731 264.099,613.731C274.615,613.731 282.556,604.529 287.922,586.125C293.289,567.721 296.388,543.094 297.219,512.245L268.487,512.245L268.487,477.352L312.378,477.352L312.378,648.596L298.671,648.596L297.464,600.248C295.068,611.799 292.305,621.601 289.174,629.653C286.043,637.705 282.368,643.781 278.148,647.881C273.928,651.982 268.931,654.032 263.157,654.032Z" style="fill-rule:nonzero;"/>
        </g>
        <g transform="matrix(1.93081,0,0,0.635801,-318.802,199.622)">
            <path d="M365.612,654.032C358.555,654.032 352.214,649.073 346.591,639.154C340.967,629.236 336.539,615.294 333.308,597.329C330.077,579.363 328.462,558.483 328.462,534.688C328.462,510.591 330.098,489.582 333.37,471.661C336.642,453.74 341.109,439.832 346.771,429.935C352.433,420.038 358.792,415.089 365.847,415.089C373.001,415.089 379.383,420.038 384.995,429.935C390.606,439.832 395.027,453.72 398.258,471.601C401.489,489.482 403.105,510.501 403.105,534.66C403.105,558.53 401.469,579.434 398.198,597.371C394.926,615.309 390.466,629.236 384.816,639.154C379.167,649.073 372.765,654.032 365.612,654.032ZM365.656,615.09C369.682,615.09 373.37,612.095 376.72,606.105C380.07,600.115 382.764,591.112 384.804,579.097C386.843,567.081 387.862,552.226 387.862,534.532C387.862,516.593 386.864,501.682 384.868,489.801C382.871,477.92 380.202,468.988 376.862,463.005C373.521,457.022 369.857,454.031 365.868,454.031C361.967,454.031 358.322,457.022 354.934,463.005C351.546,468.988 348.828,477.931 346.778,489.833C344.729,501.735 343.704,516.654 343.704,534.589C343.704,552.259 344.724,567.099 346.763,579.107C348.802,591.116 351.48,600.115 354.797,606.105C358.113,612.095 361.733,615.09 365.656,615.09Z" style="fill-rule:nonzero;"/>
        </g>
        <g transform="matrix(1.93081,0,0,0.635801,-318.802,199.622)">
            <path d="M420.639,748.25L420.639,420.525L434.033,420.525L435.524,455.835C437.111,448.687 439.095,442.007 441.476,435.795C443.857,429.583 446.722,424.579 450.072,420.783C453.422,416.987 457.29,415.089 461.676,415.089C468.878,415.089 475.181,420.307 480.585,430.742C485.989,441.176 490.221,455.382 493.283,473.36C496.345,491.337 497.876,511.914 497.876,535.091C497.876,557.948 496.337,578.351 493.26,596.303C490.183,614.254 485.924,628.363 480.483,638.631C475.043,648.898 468.749,654.032 461.602,654.032C455.701,654.032 450.519,650.479 446.058,643.373C441.596,636.267 438.095,626.308 435.555,613.498L435.555,748.25L420.639,748.25ZM459.18,614.637C463.751,614.637 467.814,611.305 471.367,604.64C474.92,597.975 477.701,588.64 479.708,576.634C481.716,564.628 482.719,550.632 482.719,534.645C482.719,518.64 481.716,504.625 479.708,492.6C477.701,480.575 474.92,471.216 471.367,464.523C467.814,457.83 463.751,454.484 459.18,454.484C454.528,454.484 450.426,457.83 446.872,464.523C443.319,471.216 440.553,480.565 438.575,492.569C436.597,504.572 435.608,518.57 435.608,534.56C435.608,550.565 436.597,564.577 438.575,576.595C440.553,588.613 443.319,597.958 446.872,604.63C450.426,611.301 454.528,614.637 459.18,614.637Z" style="fill-rule:nonzero;"/>
        </g>
        <g transform="matrix(1.93081,0,0,0.635801,-318.802,199.622)">
            <path d="M515.41,648.596L515.41,322.457L530.326,322.457L530.326,457.527C532.819,444.306 536.266,433.928 540.668,426.392C545.071,418.857 549.979,415.089 555.392,415.089C561.306,415.089 566.397,418.732 570.665,426.017C574.933,433.302 578.207,444.294 580.487,458.992C582.767,473.69 583.907,492.106 583.907,514.24L583.907,648.596L569.14,648.596L569.14,518.82C569.14,497.417 567.649,481.198 564.667,470.164C561.684,459.13 557.28,453.613 551.453,453.613C547.508,453.613 543.927,456.516 540.71,462.322C537.493,468.128 534.958,476.508 533.106,487.462C531.253,498.416 530.326,511.827 530.326,527.695L530.326,648.596L515.41,648.596Z" style="fill-rule:nonzero;"/>
        </g>
        <g transform="matrix(1.93081,0,0,0.635801,-318.802,199.622)">
            <path d="M637.141,654.032C629.941,654.032 623.565,649.079 618.013,639.172C612.462,629.266 608.109,615.389 604.956,597.541C601.803,579.694 600.226,558.922 600.226,535.226C600.226,511.181 601.783,490.183 604.896,472.234C608.01,454.285 612.359,440.274 617.942,430.2C623.525,420.126 629.997,415.089 637.357,415.089C644.733,415.089 651.06,420.042 656.338,429.949C661.616,439.855 665.679,453.023 668.528,469.453C671.377,485.883 672.801,504.06 672.801,523.986C672.801,527.006 672.797,530.248 672.787,533.711C672.778,537.175 672.715,540.992 672.599,545.163L611.187,545.163L611.187,513.221L657.944,513.221C657.675,494.248 655.599,479.412 651.715,468.713C647.832,458.014 642.983,452.665 637.169,452.665C633.174,452.665 629.479,455.426 626.084,460.949C622.689,466.472 619.967,474.61 617.918,485.364C615.868,496.117 614.844,509.626 614.844,525.89L614.844,538.736C614.844,555.539 615.863,569.718 617.901,581.273C619.94,592.829 622.646,601.554 626.021,607.45C629.396,613.346 633.085,616.294 637.087,616.294C641.882,616.294 645.824,613.129 648.915,606.799C652.005,600.469 654.288,591.866 655.762,580.99L670.692,580.99C669.384,594.881 667.195,607.329 664.126,618.332C661.056,629.335 657.258,638.036 652.73,644.434C648.203,650.833 643.006,654.032 637.141,654.032Z" style="fill-rule:nonzero;"/>
        </g>
        <g transform="matrix(1.93081,0,0,0.635801,-318.802,199.622)">
            <path d="M689.462,648.596L689.462,420.525L702.856,420.525L704.135,463.529C705.851,453.276 708.044,444.561 710.715,437.384C713.386,430.207 716.555,424.697 720.221,420.854C723.888,417.011 728.013,415.089 732.595,415.089L732.595,462.694L727.342,462.694C724.203,462.694 721.24,463.885 718.454,466.268C715.667,468.651 713.213,472.532 711.092,477.911C708.972,483.29 707.322,490.633 706.144,499.94C704.967,509.247 704.378,520.849 704.378,534.745L704.378,648.596L689.462,648.596Z" style="fill-rule:nonzero;"/>
        </g>
        <g transform="matrix(1.93081,0,0,0.635801,-318.802,199.622)">
            <path d="M747.111,648.596L747.111,331.516L764.691,331.516L800.075,545.658L835.295,331.516L852.963,331.516L852.963,648.596L838.047,648.596L838.047,410.836L805.778,604.205L794.325,604.205L762.027,411.423L762.027,648.596L747.111,648.596Z" style="fill-rule:nonzero;"/>
        </g>
        <g transform="matrix(1.93081,0,0,0.635801,-318.802,199.622)">
            <path d="M898.854,654.032C892.707,654.032 887.603,650.846 883.541,644.473C879.48,638.101 876.456,629.578 874.47,618.905C872.483,608.232 871.49,596.629 871.49,584.097C871.49,569.102 872.762,556.284 875.307,545.644C877.852,535.004 881.522,526.813 886.316,521.07C891.11,515.328 896.866,512.457 903.583,512.457L923.027,512.457C923.027,499.118 922.391,488.051 921.118,479.255C919.846,470.46 917.933,463.843 915.381,459.403C912.829,454.963 909.628,452.742 905.778,452.742C901.32,452.742 897.483,456.016 894.266,462.563C891.049,469.11 889.07,478.762 888.329,491.521L873.389,491.521C873.97,475.313 875.774,461.551 878.801,450.233C881.828,438.916 885.721,430.23 890.48,424.173C895.239,418.117 900.348,415.089 905.806,415.089C912.776,415.089 918.651,418.856 923.43,426.389C928.209,433.922 931.823,444.544 934.27,458.256C936.717,471.968 937.941,488.261 937.941,507.134L937.941,648.596L924.945,648.596L923.733,609.917C922.723,616.117 921.45,621.9 919.914,627.268C918.378,632.635 916.596,637.299 914.568,641.26C912.539,645.221 910.221,648.34 907.612,650.617C905.003,652.893 902.084,654.032 898.854,654.032ZM901.662,617.122C904.878,617.122 907.774,615.164 910.349,611.247C912.925,607.331 915.131,601.986 916.967,595.213C918.804,588.439 920.209,580.791 921.182,572.267C922.156,563.743 922.688,554.855 922.78,545.602L922.78,544.398L905.018,544.398C900.756,544.398 897.301,545.973 894.653,549.123C892.004,552.272 890.094,556.615 888.923,562.149C887.751,567.684 887.166,574.035 887.166,581.202C887.166,588.558 887.731,594.937 888.862,600.337C889.993,605.737 891.647,609.885 893.823,612.78C895.999,615.674 898.612,617.122 901.662,617.122Z" style="fill-rule:nonzero;"/>
        </g>
        <g transform="matrix(1.93081,0,0,0.635801,-318.802,199.622)">
            <path d="M957.16,748.25L957.16,420.525L970.554,420.525L972.046,455.835C973.632,448.687 975.616,442.007 977.997,435.795C980.378,429.583 983.243,424.579 986.593,420.783C989.943,416.987 993.811,415.089 998.197,415.089C1005.4,415.089 1011.7,420.307 1017.11,430.742C1022.51,441.176 1026.74,455.382 1029.8,473.36C1032.87,491.337 1034.4,511.914 1034.4,535.091C1034.4,557.948 1032.86,578.351 1029.78,596.303C1026.7,614.254 1022.45,628.363 1017,638.631C1011.56,648.898 1005.27,654.032 998.123,654.032C992.222,654.032 987.04,650.479 982.579,643.373C978.117,636.267 974.616,626.308 972.076,613.498L972.076,748.25L957.16,748.25ZM995.701,614.637C1000.27,614.637 1004.34,611.305 1007.89,604.64C1011.44,597.975 1014.22,588.64 1016.23,576.634C1018.24,564.628 1019.24,550.632 1019.24,534.645C1019.24,518.64 1018.24,504.625 1016.23,492.6C1014.22,480.575 1011.44,471.216 1007.89,464.523C1004.34,457.83 1000.27,454.484 995.701,454.484C991.049,454.484 986.947,457.83 983.393,464.523C979.84,471.216 977.074,480.565 975.096,492.569C973.118,504.572 972.129,518.57 972.129,534.56C972.129,550.565 973.118,564.577 975.096,576.595C977.074,588.613 979.84,597.958 983.393,604.63C986.947,611.301 991.049,614.637 995.701,614.637Z" style="fill-rule:nonzero;"/>
        </g>
        <g transform="matrix(1.93081,0,0,0.635801,-318.802,199.622)">
            <path d="M1081.01,654.032C1074.62,654.032 1069.04,650.833 1064.26,644.434C1059.48,638.036 1055.7,629.096 1052.93,617.614C1050.16,606.131 1048.48,592.765 1047.89,577.515L1063,577.515C1063.51,584.72 1064.5,591.348 1065.97,597.4C1067.44,603.451 1069.43,608.279 1071.95,611.884C1074.46,615.489 1077.49,617.292 1081.02,617.292C1084.28,617.292 1086.97,615.845 1089.07,612.953C1091.17,610.06 1092.75,606.164 1093.79,601.264C1094.82,596.364 1095.34,591.038 1095.34,585.286C1095.34,576.892 1094.66,570.477 1093.29,566.042C1091.92,561.607 1089.93,558.104 1087.3,555.535C1084.67,552.966 1081.5,550.622 1077.79,548.504C1074.38,546.536 1071.06,544.001 1067.82,540.899C1064.58,537.796 1061.68,533.81 1059.12,528.941C1056.57,524.071 1054.54,517.922 1053.04,510.493C1051.55,503.064 1050.8,493.998 1050.8,483.297C1050.8,470.17 1051.93,458.453 1054.21,448.146C1056.49,437.838 1059.74,429.752 1063.97,423.887C1068.2,418.022 1073.22,415.089 1079.04,415.089C1087.38,415.089 1094.09,421.071 1099.18,433.035C1104.27,444.998 1107.24,461.995 1108.1,484.026L1093.67,484.026C1093.21,473.957 1091.7,466.087 1089.15,460.418C1086.59,454.749 1083.18,451.914 1078.9,451.914C1074.56,451.914 1071.26,454.498 1069,459.664C1066.75,464.831 1065.62,471.59 1065.62,479.942C1065.62,485.425 1066.26,490.292 1067.55,494.543C1068.84,498.795 1070.76,502.392 1073.32,505.337C1075.87,508.281 1078.99,510.864 1082.67,513.087C1087.9,516.13 1092.6,519.897 1096.76,524.386C1100.92,528.876 1104.25,535.524 1106.76,544.331C1109.26,553.138 1110.5,565.707 1110.48,582.038C1110.55,596.32 1109.37,608.884 1106.94,619.73C1104.5,630.575 1101.08,639.003 1096.68,645.015C1092.28,651.026 1087.06,654.032 1081.01,654.032Z" style="fill-rule:nonzero;"/>
        </g>
        <g transform="matrix(0.184446,0,0,0.184446,293.021,442.754)">
            <path d="M681.93,362.716C684.816,357.455 679.045,351.684 673.784,354.57L461.1,471.225C460.098,471.774 459.274,472.598 458.725,473.6L342.07,686.284C339.184,691.545 344.955,697.316 350.216,694.43L562.9,577.775C563.902,577.226 564.726,576.402 565.275,575.4L681.93,362.716ZM488.737,547.763C501.789,560.814 522.95,560.814 536.002,547.763C549.053,534.711 549.053,513.55 536.002,500.498C522.95,487.447 501.789,487.447 488.737,500.498C475.686,513.55 475.686,534.711 488.737,547.763Z"/>
        </g>
    </g>
</svg>
