<?xml version="1.0" encoding="UTF-8"?>
<!--Generator: Apple Native CoreSVG 336-->
<!DOCTYPE svg
PUBLIC "-//W3C//DTD SVG 1.1//EN"
       "http://www.w3.org/Graphics/SVG/1.1/DTD/svg11.dtd">
<svg version="1.1" xmlns="http://www.w3.org/2000/svg" xmlns:xlink="http://www.w3.org/1999/xlink" viewBox="0 0 3300 2200">
 <!--glyph: "", point size: 100.0, font version: "20.0d8e1", template writer version: "138.0.0"-->
 <style>.monochrome-0 {-sfsymbols-motion-group:3;-sfsymbols-layer-tags:58ee050910b4820e}
.monochrome-1 {opacity:0.0;-sfsymbols-clear-behind:true;-sfsymbols-motion-group:2;-sfsymbols-layer-tags:58ee050910b4820e}
.monochrome-2 {-sfsymbols-motion-group:1;-sfsymbols-layer-tags:58ee050910b4820e}
.monochrome-3 {opacity:0.0;-sfsymbols-clear-behind:true;-sfsymbols-motion-group:0;-sfsymbols-layer-tags:58ee050910b4820e}

.multicolor-0:custom {fill:#C30000;-sfsymbols-motion-group:3;-sfsymbols-layer-tags:58ee050910b4820e}
.multicolor-1:tintColor {opacity:0.0;-sfsymbols-clear-behind:true;-sfsymbols-motion-group:2;-sfsymbols-layer-tags:58ee050910b4820e}
.multicolor-2:systemYellowColor {-sfsymbols-motion-group:1;-sfsymbols-layer-tags:58ee050910b4820e}
.multicolor-3:tintColor {opacity:0.0;-sfsymbols-clear-behind:true;-sfsymbols-motion-group:0;-sfsymbols-layer-tags:58ee050910b4820e}

.hierarchical-0:primary {-sfsymbols-motion-group:3;-sfsymbols-layer-tags:58ee050910b4820e}
.hierarchical-1:primary {opacity:0.0;-sfsymbols-clear-behind:true;-sfsymbols-motion-group:2;-sfsymbols-layer-tags:58ee050910b4820e}
.hierarchical-2:secondary {-sfsymbols-motion-group:1;-sfsymbols-layer-tags:58ee050910b4820e}
.hierarchical-3:primary {opacity:0.0;-sfsymbols-clear-behind:true;-sfsymbols-motion-group:0;-sfsymbols-layer-tags:58ee050910b4820e}

.SFSymbolsPreviewWireframe {fill:none;opacity:1.0;stroke:black;stroke-width:0.5}
</style>
 <g id="Notes">
  <rect height="2200" id="artboard" style="fill:white;opacity:1" width="3300" x="0" y="0"/>
  <line style="fill:none;stroke:black;opacity:1;stroke-width:0.5;" x1="263" x2="3036" y1="292" y2="292"/>
  <text style="stroke:none;fill:black;font-family:sans-serif;font-size:13;font-weight:bold;" transform="matrix(1 0 0 1 263 322)">Weight/Scale Variations</text>
  <text style="stroke:none;fill:black;font-family:sans-serif;font-size:13;text-anchor:middle;" transform="matrix(1 0 0 1 559.711 322)">Ultralight</text>
  <text style="stroke:none;fill:black;font-family:sans-serif;font-size:13;text-anchor:middle;" transform="matrix(1 0 0 1 856.422 322)">Thin</text>
  <text style="stroke:none;fill:black;font-family:sans-serif;font-size:13;text-anchor:middle;" transform="matrix(1 0 0 1 1153.13 322)">Light</text>
  <text style="stroke:none;fill:black;font-family:sans-serif;font-size:13;text-anchor:middle;" transform="matrix(1 0 0 1 1449.84 322)">Regular</text>
  <text style="stroke:none;fill:black;font-family:sans-serif;font-size:13;text-anchor:middle;" transform="matrix(1 0 0 1 1746.56 322)">Medium</text>
  <text style="stroke:none;fill:black;font-family:sans-serif;font-size:13;text-anchor:middle;" transform="matrix(1 0 0 1 2043.27 322)">Semibold</text>
  <text style="stroke:none;fill:black;font-family:sans-serif;font-size:13;text-anchor:middle;" transform="matrix(1 0 0 1 2339.98 322)">Bold</text>
  <text style="stroke:none;fill:black;font-family:sans-serif;font-size:13;text-anchor:middle;" transform="matrix(1 0 0 1 2636.69 322)">Heavy</text>
  <text style="stroke:none;fill:black;font-family:sans-serif;font-size:13;text-anchor:middle;" transform="matrix(1 0 0 1 2933.4 322)">Black</text>
  <line style="fill:none;stroke:black;opacity:1;stroke-width:0.5;" x1="263" x2="3036" y1="1903" y2="1903"/>
  <g transform="matrix(0.2 0 0 0.2 263 1933)">
   <path d="m46.2402 4.15039c21.7773 0 39.4531-17.627 39.4531-39.4043s-17.6758-39.4043-39.4531-39.4043c-21.7285 0-39.4043 17.627-39.4043 39.4043s17.6758 39.4043 39.4043 39.4043Zm0-7.42188c-17.6758 0-31.9336-14.3066-31.9336-31.9824s14.2578-31.9824 31.9336-31.9824 31.9824 14.3066 31.9824 31.9824-14.3066 31.9824-31.9824 31.9824Zm-17.9688-31.9824c0 2.14844 1.51367 3.61328 3.75977 3.61328h10.498v10.5957c0 2.19727 1.46484 3.71094 3.61328 3.71094 2.24609 0 3.71094-1.51367 3.71094-3.71094v-10.5957h10.5957c2.19727 0 3.71094-1.46484 3.71094-3.61328 0-2.19727-1.51367-3.71094-3.71094-3.71094h-10.5957v-10.5469c0-2.24609-1.46484-3.75977-3.71094-3.75977-2.14844 0-3.61328 1.51367-3.61328 3.75977v10.5469h-10.498c-2.24609 0-3.75977 1.51367-3.75977 3.71094Z"/>
  </g>
  <g transform="matrix(0.2 0 0 0.2 281.506 1933)">
   <path d="m58.5449 14.5508c27.4902 0 49.8047-22.3145 49.8047-49.8047s-22.3145-49.8047-49.8047-49.8047-49.8047 22.3145-49.8047 49.8047 22.3145 49.8047 49.8047 49.8047Zm0-8.30078c-22.9492 0-41.5039-18.5547-41.5039-41.5039s18.5547-41.5039 41.5039-41.5039 41.5039 18.5547 41.5039 41.5039-18.5547 41.5039-41.5039 41.5039Zm-22.6562-41.5039c0 2.39258 1.66016 4.00391 4.15039 4.00391h14.3555v14.4043c0 2.44141 1.66016 4.15039 4.05273 4.15039 2.44141 0 4.15039-1.66016 4.15039-4.15039v-14.4043h14.4043c2.44141 0 4.15039-1.61133 4.15039-4.00391 0-2.44141-1.70898-4.15039-4.15039-4.15039h-14.4043v-14.3555c0-2.49023-1.70898-4.19922-4.15039-4.19922-2.39258 0-4.05273 1.70898-4.05273 4.19922v14.3555h-14.3555c-2.49023 0-4.15039 1.70898-4.15039 4.15039Z"/>
  </g>
  <g transform="matrix(0.2 0 0 0.2 304.924 1933)">
   <path d="m74.8535 28.3203c35.1074 0 63.623-28.4668 63.623-63.5742s-28.5156-63.623-63.623-63.623-63.5742 28.5156-63.5742 63.623 28.4668 63.5742 63.5742 63.5742Zm0-9.08203c-30.127 0-54.4922-24.3652-54.4922-54.4922s24.3652-54.4922 54.4922-54.4922 54.4922 24.3652 54.4922 54.4922-24.3652 54.4922-54.4922 54.4922Zm-28.8574-54.4922c0 2.58789 1.85547 4.39453 4.58984 4.39453h19.7266v19.7754c0 2.68555 1.85547 4.58984 4.44336 4.58984 2.68555 0 4.54102-1.85547 4.54102-4.58984v-19.7754h19.7754c2.68555 0 4.58984-1.80664 4.58984-4.39453 0-2.73438-1.85547-4.58984-4.58984-4.58984h-19.7754v-19.7266c0-2.73438-1.85547-4.63867-4.54102-4.63867-2.58789 0-4.44336 1.9043-4.44336 4.63867v19.7266h-19.7266c-2.73438 0-4.58984 1.85547-4.58984 4.58984Z"/>
  </g>
  <text style="stroke:none;fill:black;font-family:sans-serif;font-size:13;font-weight:bold;" transform="matrix(1 0 0 1 263 1953)">Design Variations</text>
  <text style="stroke:none;fill:black;font-family:sans-serif;font-size:13;" transform="matrix(1 0 0 1 263 1971)">Symbols are supported in up to nine weights and three scales.</text>
  <text style="stroke:none;fill:black;font-family:sans-serif;font-size:13;" transform="matrix(1 0 0 1 263 1989)">For optimal layout with text and other symbols, vertically align</text>
  <text style="stroke:none;fill:black;font-family:sans-serif;font-size:13;" transform="matrix(1 0 0 1 263 2007)">symbols with the adjacent text.</text>
  <line style="fill:none;stroke:#00AEEF;stroke-width:0.5;opacity:1.0;" x1="776" x2="776" y1="1919" y2="1933"/>
  <g transform="matrix(0.2 0 0 0.2 776 1933)">
   <path d="m16.5527 0.78125c2.58789 0 3.85742-0.976562 4.78516-3.71094l6.29883-17.2363h28.8086l6.29883 17.2363c0.927734 2.73438 2.19727 3.71094 4.73633 3.71094 2.58789 0 4.24805-1.5625 4.24805-4.00391 0-0.830078-0.146484-1.61133-0.537109-2.63672l-22.9004-60.9863c-1.12305-2.97852-3.125-4.49219-6.25-4.49219-3.02734 0-5.07812 1.46484-6.15234 4.44336l-22.9004 61.084c-0.390625 1.02539-0.537109 1.80664-0.537109 2.63672 0 2.44141 1.5625 3.95508 4.10156 3.95508Zm13.4766-28.3691 11.8652-32.8613h0.244141l11.8652 32.8613Z"/>
  </g>
  <line style="fill:none;stroke:#00AEEF;stroke-width:0.5;opacity:1.0;" x1="792.836" x2="792.836" y1="1919" y2="1933"/>
  <text style="stroke:none;fill:black;font-family:sans-serif;font-size:13;font-weight:bold;" transform="matrix(1 0 0 1 776 1953)">Margins</text>
  <text style="stroke:none;fill:black;font-family:sans-serif;font-size:13;" transform="matrix(1 0 0 1 776 1971)">Leading and trailing margins on the left and right side of each symbol</text>
  <text style="stroke:none;fill:black;font-family:sans-serif;font-size:13;" transform="matrix(1 0 0 1 776 1989)">can be adjusted by modifying the x-location of the margin guidelines.</text>
  <text style="stroke:none;fill:black;font-family:sans-serif;font-size:13;" transform="matrix(1 0 0 1 776 2007)">Modifications are automatically applied proportionally to all</text>
  <text style="stroke:none;fill:black;font-family:sans-serif;font-size:13;" transform="matrix(1 0 0 1 776 2025)">scales and weights.</text>
  <g transform="matrix(0.2 0 0 0.2 1289 1933)">
   <path d="m14.209 9.32617 8.49609 8.54492c4.29688 4.3457 9.22852 4.05273 13.8672-1.07422l53.4668-58.9355-4.83398-4.88281-53.0762 58.3984c-1.75781 2.00195-3.41797 2.49023-5.76172 0.146484l-5.85938-5.81055c-2.34375-2.29492-1.80664-4.00391 0.195312-5.81055l57.373-54.0039-4.88281-4.83398-57.959 54.4434c-4.93164 4.58984-5.32227 9.47266-1.02539 13.8184Zm32.0801-90.9668c-2.09961 2.05078-2.24609 4.93164-1.07422 6.88477 1.17188 1.80664 3.4668 2.97852 6.68945 2.14844 7.32422-1.70898 14.9414-2.00195 22.0703 2.68555l-2.92969 7.27539c-1.70898 4.15039-0.830078 7.08008 1.85547 9.81445l11.4746 11.5723c2.44141 2.44141 4.49219 2.53906 7.32422 2.05078l5.32227-0.976562 3.32031 3.36914-0.195312 2.7832c-0.195312 2.49023 0.439453 4.39453 2.88086 6.78711l3.80859 3.71094c2.39258 2.39258 5.46875 2.53906 7.8125 0.195312l14.5508-14.5996c2.34375-2.34375 2.24609-5.32227-0.146484-7.71484l-3.85742-3.80859c-2.39258-2.39258-4.24805-3.17383-6.64062-2.97852l-2.88086 0.244141-3.22266-3.17383 1.2207-5.61523c0.634766-2.83203-0.146484-5.0293-3.07617-7.95898l-10.9863-10.9375c-16.6992-16.6016-38.8672-16.2109-53.3203-1.75781Zm7.4707 1.85547c12.1582-8.88672 28.6133-7.37305 39.7461 3.75977l12.1582 12.0605c1.17188 1.17188 1.36719 2.09961 1.02539 3.80859l-1.61133 7.42188 7.51953 7.42188 4.93164-0.292969c1.26953-0.0488281 1.66016 0.0488281 2.63672 1.02539l2.88086 2.88086-12.207 12.207-2.88086-2.88086c-0.976562-0.976562-1.12305-1.36719-1.07422-2.68555l0.341797-4.88281-7.4707-7.42188-7.61719 1.26953c-1.61133 0.341797-2.34375 0.195312-3.56445-0.976562l-10.0098-10.0098c-1.26953-1.17188-1.41602-2.00195-0.634766-3.85742l4.39453-10.4492c-7.8125-7.27539-17.9688-10.4004-28.125-7.42188-0.78125 0.195312-1.07422-0.439453-0.439453-0.976562Z"/>
  </g>
  <text style="stroke:none;fill:black;font-family:sans-serif;font-size:13;font-weight:bold;" transform="matrix(1 0 0 1 1289 1953)">Exporting</text>
  <text style="stroke:none;fill:black;font-family:sans-serif;font-size:13;" transform="matrix(1 0 0 1 1289 1971)">Symbols should be outlined when exporting to ensure the</text>
  <text style="stroke:none;fill:black;font-family:sans-serif;font-size:13;" transform="matrix(1 0 0 1 1289 1989)">design is preserved when submitting to Xcode.</text>
  <text id="template-version" style="stroke:none;fill:black;font-family:sans-serif;font-size:13;text-anchor:end;" transform="matrix(1 0 0 1 3036 1933)">Template v.6.0</text>
  <text style="stroke:none;fill:black;font-family:sans-serif;font-size:13;text-anchor:end;" transform="matrix(1 0 0 1 3036 1951)">Requires Xcode 16 or greater</text>
  <text id="descriptive-name" style="stroke:none;fill:black;font-family:sans-serif;font-size:13;text-anchor:end;" transform="matrix(1 0 0 1 3036 1969)">Generated from sign.gopher-way</text>
  <text style="stroke:none;fill:black;font-family:sans-serif;font-size:13;text-anchor:end;" transform="matrix(1 0 0 1 3036 1987)">Typeset at 100.0 points</text>
  <text style="stroke:none;fill:black;font-family:sans-serif;font-size:13;" transform="matrix(1 0 0 1 263 726)">Small</text>
  <text style="stroke:none;fill:black;font-family:sans-serif;font-size:13;" transform="matrix(1 0 0 1 263 1156)">Medium</text>
  <text style="stroke:none;fill:black;font-family:sans-serif;font-size:13;" transform="matrix(1 0 0 1 263 1586)">Large</text>
 </g>
 <g id="Guides">
  <g id="H-reference" style="fill:#27AAE1;stroke:none;" transform="matrix(1 0 0 1 339 696)">
   <path d="M0.993654 0L3.63775 0L29.3281-67.1323L30.0303-67.1323L30.0303-70.459L28.1226-70.459ZM11.6885-24.4799L46.9815-24.4799L46.2315-26.7285L12.4385-26.7285ZM55.1196 0L57.7637 0L30.6382-70.459L29.4326-70.459L29.4326-67.1323Z"/>
  </g>
  <line id="Baseline-S" style="fill:none;stroke:#27AAE1;opacity:1;stroke-width:0.5;" x1="263" x2="3036" y1="696" y2="696"/>
  <line id="Capline-S" style="fill:none;stroke:#27AAE1;opacity:1;stroke-width:0.5;" x1="263" x2="3036" y1="625.541" y2="625.541"/>
  <g id="H-reference" style="fill:#27AAE1;stroke:none;" transform="matrix(1 0 0 1 339 1126)">
   <path d="M0.993654 0L3.63775 0L29.3281-67.1323L30.0303-67.1323L30.0303-70.459L28.1226-70.459ZM11.6885-24.4799L46.9815-24.4799L46.2315-26.7285L12.4385-26.7285ZM55.1196 0L57.7637 0L30.6382-70.459L29.4326-70.459L29.4326-67.1323Z"/>
  </g>
  <line id="Baseline-M" style="fill:none;stroke:#27AAE1;opacity:1;stroke-width:0.5;" x1="263" x2="3036" y1="1126" y2="1126"/>
  <line id="Capline-M" style="fill:none;stroke:#27AAE1;opacity:1;stroke-width:0.5;" x1="263" x2="3036" y1="1055.54" y2="1055.54"/>
  <g id="H-reference" style="fill:#27AAE1;stroke:none;" transform="matrix(1 0 0 1 339 1556)">
   <path d="M0.993654 0L3.63775 0L29.3281-67.1323L30.0303-67.1323L30.0303-70.459L28.1226-70.459ZM11.6885-24.4799L46.9815-24.4799L46.2315-26.7285L12.4385-26.7285ZM55.1196 0L57.7637 0L30.6382-70.459L29.4326-70.459L29.4326-67.1323Z"/>
  </g>
  <line id="Baseline-L" style="fill:none;stroke:#27AAE1;opacity:1;stroke-width:0.5;" x1="263" x2="3036" y1="1556" y2="1556"/>
  <line id="Capline-L" style="fill:none;stroke:#27AAE1;opacity:1;stroke-width:0.5;" x1="263" x2="3036" y1="1485.54" y2="1485.54"/>
  <line id="right-margin-Black-S" style="fill:none;stroke:#00AEEF;stroke-width:0.5;opacity:1.0;" x1="2982.23" x2="2982.23" y1="600.785" y2="720.121"/>
  <line id="left-margin-Black-S" style="fill:none;stroke:#00AEEF;stroke-width:0.5;opacity:1.0;" x1="2884.57" x2="2884.57" y1="600.785" y2="720.121"/>
  <line id="right-margin-Regular-S" style="fill:none;stroke:#00AEEF;stroke-width:0.5;opacity:1.0;" x1="1496.11" x2="1496.11" y1="600.785" y2="720.121"/>
  <line id="left-margin-Regular-S" style="fill:none;stroke:#00AEEF;stroke-width:0.5;opacity:1.0;" x1="1403.58" x2="1403.58" y1="600.785" y2="720.121"/>
  <line id="right-margin-Ultralight-S" style="fill:none;stroke:#FF3B30;stroke-width:0.5;opacity:1.0;" x1="603.773" x2="603.773" y1="600.785" y2="720.121"/>
  <line id="left-margin-Ultralight-S" style="fill:none;stroke:#FF3B30;stroke-width:0.5;opacity:1.0;" x1="515.649" x2="515.649" y1="600.785" y2="720.121"/>
 </g>
 <g id="Symbols">
  <g id="Black-S" transform="matrix(1 0 0 1 2884.57 696)">
   <path class="monochrome-0 multicolor-0:custom hierarchical-0:primary SFSymbolsPreviewWireframe" d="M49.4152-64.1372C69.0947-64.1372 85.0762-48.1502 85.0762-28.4616C85.0762-8.7711 69.0947 7.2142 49.4152 7.2142C29.7174 7.2142 13.7358-8.7711 13.7358-28.4616C13.7358-48.1502 29.7174-64.1372 49.4152-64.1372ZM49.4152-56.8989C33.7082-56.8989 20.967-44.1557 20.967-28.4616C20.967-12.7674 33.7082-0.0241 49.4152-0.0241C65.1039-0.0241 77.8453-12.7674 77.8453-28.4616C77.8453-44.1557 65.1039-56.8989 49.4152-56.8989Z"/>
   <path class="monochrome-1 multicolor-1:tintColor hierarchical-1:primary SFSymbolsPreviewWireframe" d="M4.55047-54.3602C13.5189-69.8338 30.2451-80.25 49.4172-80.25C68.5646-80.25 85.2908-69.8338 94.2592-54.3602C95.3957-52.401 95.6921-50.0712 95.1239-47.8846C94.5309-45.6957 93.098-43.8303 91.1462-42.6988L76.4955-34.2469C72.419-31.8948 67.2058-33.2882 64.8587-37.3623C61.7704-42.6914 56.0138-46.2836 49.4172-46.2836C42.7959-46.2836 37.0393-42.6914 33.951-37.3623C31.6039-33.2882 26.391-31.8948 22.3145-34.2469L7.66349-42.6988C5.71169-43.8303 4.27876-45.6957 3.68581-47.8846C3.11756-50.0712 3.41398-52.401 4.55047-54.3602Z"/>
   <path class="monochrome-0 monochrome-2 multicolor-0:custom multicolor-2:systemYellowColor hierarchical-0:primary hierarchical-2:secondary SFSymbolsPreviewWireframe" d="M8.80051-51.8993C16.9042-65.9078 32.0737-75.3358 49.4175-75.3358C66.7367-75.3358 81.8818-65.9078 90.0101-51.8993C90.4796-51.0692 90.6278-50.081 90.3561-49.152C90.109-48.223 89.5159-47.4326 88.6759-46.9533L74.0497-38.5012C72.3202-37.503 70.0967-38.0935 69.1084-39.8229C65.1554-46.6196 57.8177-51.1977 49.4175-51.1977C40.9927-51.1977 33.6303-46.6196 29.702-39.8229C28.7137-38.0935 26.4901-37.503 24.7607-38.5012L10.1345-46.9533C9.29443-47.4326 8.70165-48.223 8.45459-49.152C8.18282-50.081 8.33109-51.0692 8.80051-51.8993Z"/>
   <path class="monochrome-0 monochrome-3 multicolor-0:custom multicolor-3:tintColor hierarchical-0:primary hierarchical-3:primary SFSymbolsPreviewWireframe" d="M49.4133-58.4365C41.875-58.4365 34.9778-55.6497 29.7145-51.0513C29.0217-50.4494 28.3598-49.8155 27.729-49.1537C24.7613-46.0485 24.5132-47.007 20.8009-49.1537C17.5746-51.012 17.2436-51.9561 19.7047-54.7398C20.0253-55.0986 20.3872-55.4791 20.8009-55.8866C28.1737-63.2594 38.173-68.0998 49.4133-68.0998C60.6432-68.0998 70.6426-63.2594 78.0154-55.8866C78.4291-55.4791 78.7909-55.0986 79.1115-54.7398C81.5725-51.9561 81.2314-51.012 78.0154-49.1537C74.3032-47.007 74.055-46.0485 71.0873-49.1537C70.4565-49.8155 69.7947-50.4494 69.1018-51.0513C63.8385-55.6497 56.9412-58.4365 49.4133-58.4365Z"/>
  </g>
  <g id="Regular-S" transform="matrix(1 0 0 1 1403.58 696)">
   <path class="monochrome-0 multicolor-0:custom hierarchical-0:primary SFSymbolsPreviewWireframe" d="M46.4152-64.1372C66.0947-64.1372 82.0762-48.1502 82.0762-28.4616C82.0762-8.7711 66.0947 7.2142 46.4152 7.2142C26.7174 7.2142 10.7358-8.7711 10.7358-28.4616C10.7358-48.1502 26.7174-64.1372 46.4152-64.1372ZM46.4152-56.8989C30.7082-56.8989 17.967-44.1557 17.967-28.4616C17.967-12.7674 30.7082-0.0241 46.4152-0.0241C62.1039-0.0241 74.8453-12.7674 74.8453-28.4616C74.8453-44.1557 62.1039-56.8989 46.4152-56.8989Z"/>
   <path class="monochrome-1 multicolor-1:tintColor hierarchical-1:primary SFSymbolsPreviewWireframe" d="M1.55047-54.3602C10.5189-69.8338 27.2451-80.25 46.4172-80.25C65.5646-80.25 82.2908-69.8338 91.2592-54.3602C92.3957-52.401 92.6921-50.0712 92.1239-47.8846C91.5309-45.6957 90.098-43.8303 88.1462-42.6988L73.4955-34.2469C69.419-31.8948 64.2058-33.2882 61.8587-37.3623C58.7704-42.6914 53.0138-46.2836 46.4172-46.2836C39.7959-46.2836 34.0393-42.6914 30.951-37.3623C28.6039-33.2882 23.391-31.8948 19.3145-34.2469L4.66349-42.6988C2.71169-43.8303 1.27876-45.6957 0.685808-47.8846C0.117563-50.0712 0.413978-52.401 1.55047-54.3602Z"/>
   <path class="monochrome-0 monochrome-2 multicolor-0:custom multicolor-2:systemYellowColor hierarchical-0:primary hierarchical-2:secondary SFSymbolsPreviewWireframe" d="M5.80051-51.8993C13.9042-65.9078 29.0737-75.3358 46.4175-75.3358C63.7367-75.3358 78.8818-65.9078 87.0101-51.8993C87.4796-51.0692 87.6278-50.081 87.3561-49.152C87.109-48.223 86.5159-47.4326 85.6759-46.9533L71.0497-38.5012C69.3202-37.503 67.0967-38.0935 66.1084-39.8229C62.1554-46.6196 54.8177-51.1977 46.4175-51.1977C37.9927-51.1977 30.6303-46.6196 26.702-39.8229C25.7137-38.0935 23.4901-37.503 21.7607-38.5012L7.13445-46.9533C6.29443-47.4326 5.70165-48.223 5.45459-49.152C5.18282-50.081 5.33109-51.0692 5.80051-51.8993Z"/>
   <path class="monochrome-0 monochrome-3 multicolor-0:custom multicolor-3:tintColor hierarchical-0:primary hierarchical-3:primary SFSymbolsPreviewWireframe" d="M46.4133-58.4365C38.875-58.4365 31.9778-55.6497 26.7145-51.0513C26.0217-50.4494 25.3598-49.8155 24.729-49.1537C21.7613-46.0485 21.5132-47.007 17.8009-49.1537C14.5746-51.012 14.2436-51.9561 16.7047-54.7398C17.0253-55.0986 17.3872-55.4791 17.8009-55.8866C25.1737-63.2594 35.173-68.0998 46.4133-68.0998C57.6432-68.0998 67.6426-63.2594 75.0154-55.8866C75.4291-55.4791 75.7909-55.0986 76.1115-54.7398C78.5725-51.9561 78.2314-51.012 75.0154-49.1537C71.3032-47.007 71.055-46.0485 68.0873-49.1537C67.4565-49.8155 66.7947-50.4494 66.1018-51.0513C60.8385-55.6497 53.9412-58.4365 46.4133-58.4365Z"/>
  </g>
  <g id="Ultralight-S" transform="matrix(1 0 0 1 515.649 696)">
   <path class="monochrome-0 multicolor-0:custom hierarchical-0:primary SFSymbolsPreviewWireframe" d="M44.4152-64.1372C64.0947-64.1372 80.0762-48.1502 80.0762-28.4616C80.0762-8.7711 64.0947 7.2142 44.4152 7.2142C24.7174 7.2142 8.7358-8.7711 8.7358-28.4616C8.7358-48.1502 24.7174-64.1372 44.4152-64.1372ZM44.4152-56.8989C28.7082-56.8989 15.967-44.1557 15.967-28.4616C15.967-12.7674 28.7082-0.0241 44.4152-0.0241C60.1039-0.0241 72.8453-12.7674 72.8453-28.4616C72.8453-44.1557 60.1039-56.8989 44.4152-56.8989Z"/>
   <path class="monochrome-1 multicolor-1:tintColor hierarchical-1:primary SFSymbolsPreviewWireframe" d="M-0.44953-54.3602C8.5189-69.8338 25.2451-80.25 44.4172-80.25C63.5646-80.25 80.2908-69.8338 89.2592-54.3602C90.3957-52.401 90.6921-50.0712 90.1239-47.8846C89.5309-45.6957 88.098-43.8303 86.1462-42.6988L71.4955-34.2469C67.419-31.8948 62.2058-33.2882 59.8587-37.3623C56.7704-42.6914 51.0138-46.2836 44.4172-46.2836C37.7959-46.2836 32.0393-42.6914 28.951-37.3623C26.6039-33.2882 21.391-31.8948 17.3145-34.2469L2.66349-42.6988C0.71169-43.8303-0.72124-45.6957-1.31419-47.8846C-1.88244-50.0712-1.58602-52.401-0.44953-54.3602Z"/>
   <path class="monochrome-0 monochrome-2 multicolor-0:custom multicolor-2:systemYellowColor hierarchical-0:primary hierarchical-2:secondary SFSymbolsPreviewWireframe" d="M3.80051-51.8993C11.9042-65.9078 27.0737-75.3358 44.4175-75.3358C61.7367-75.3358 76.8818-65.9078 85.0101-51.8993C85.4796-51.0692 85.6278-50.081 85.3561-49.152C85.109-48.223 84.5159-47.4326 83.6759-46.9533L69.0497-38.5012C67.3202-37.503 65.0967-38.0935 64.1084-39.8229C60.1554-46.6196 52.8177-51.1977 44.4175-51.1977C35.9927-51.1977 28.6303-46.6196 24.702-39.8229C23.7137-38.0935 21.4901-37.503 19.7607-38.5012L5.13445-46.9533C4.29443-47.4326 3.70165-48.223 3.45459-49.152C3.18282-50.081 3.33109-51.0692 3.80051-51.8993Z"/>
   <path class="monochrome-0 monochrome-3 multicolor-0:custom multicolor-3:tintColor hierarchical-0:primary hierarchical-3:primary SFSymbolsPreviewWireframe" d="M44.4133-58.4365C36.875-58.4365 29.9778-55.6497 24.7145-51.0513C24.0217-50.4494 23.3598-49.8155 22.729-49.1537C19.7613-46.0485 19.5132-47.007 15.8009-49.1537C12.5746-51.012 12.2436-51.9561 14.7047-54.7398C15.0253-55.0986 15.3872-55.4791 15.8009-55.8866C23.1737-63.2594 33.173-68.0998 44.4133-68.0998C55.6432-68.0998 65.6426-63.2594 73.0154-55.8866C73.4291-55.4791 73.7909-55.0986 74.1115-54.7398C76.5725-51.9561 76.2314-51.012 73.0154-49.1537C69.3032-47.007 69.055-46.0485 66.0873-49.1537C65.4565-49.8155 64.7947-50.4494 64.1018-51.0513C58.8385-55.6497 51.9412-58.4365 44.4133-58.4365Z"/>
  </g>
 </g>
</svg>
